<?xml version="1.0" encoding="utf-8"?>
<svg version="1.1" xmlns:xlink="http://www.w3.org/1999/xlink" width="102px" height="102px" xmlns="http://www.w3.org/2000/svg">
  <g transform="matrix(1 0 0 1 -444 -107 )">
    <path d="M 101.613695564516 51.0687883064516  C 101.613695564516 23.1569818548387  78.9861471774194 0.529433467741942  51.0743407258064 0.529433467741942  C 23.1625342741935 0.529433467741942  0.534985887096727 23.1569818548387  0.534985887096727 51.0687883064516  C 0.534985887096727 78.9805947580645  23.1625342741935 101.608143145161  51.0743407258064 101.608143145161  C 78.9861471774194 101.608143145161  101.613695564516 78.9805947580645  101.613695564516 51.0687883064516  Z M 80.4770745967742 35.2275302419355  C 80.4770745967742 35.2275302419355  43.5019717741935 69.9157560483871  43.4906612903226 69.925627016129  C 42.6609858870968 70.7343266129033  41.3217217741935 70.7173608870968  40.5130221774193 69.8876854838709  L 21.6309919354839 51.2541774193549  C 20.8222923387097 50.424502016129  20.8392580645162 49.0852379032258  21.6689334677418 48.2765383064516  C 22.4986088709677 47.4678387096773  23.8378729838709 47.4848044354838  24.6465725806451 48.3144798387097  L 42.0335625000001 65.4375241935484  L 77.5360403225806 32.2120524193549  C 78.3657157258065 31.4033528225807  79.7049798387098 31.4203185483871  80.5136794354839 32.2499939516129  C 81.3237157258065 33.0796693548387  81.3068528225806 34.4189334677419  80.4771774193547 35.2276330645162  Z " fill-rule="nonzero" fill="#67c23a" stroke="none" transform="matrix(1 0 0 1 444 107 )" />
  </g>
</svg>