<?xml version="1.0" standalone="no"?><!DOCTYPE svg PUBLIC "-//W3C//DTD SVG 1.1//EN" "http://www.w3.org/Graphics/SVG/1.1/DTD/svg11.dtd"><svg t="1583998931810" class="icon" viewBox="0 0 1024 1024" version="1.1" xmlns="http://www.w3.org/2000/svg" p-id="10967" xmlns:xlink="http://www.w3.org/1999/xlink" width="250" height="250"><defs><style type="text/css"></style></defs><path d="M960 454.4l-6.4-384c0-32-38.4-51.2-70.4-51.2H134.4C102.4 25.6 64 44.8 64 70.4v384c-32 0-57.6 19.2-57.6 51.2v422.4c0 32 32 76.8 57.6 76.8h896c32 0 57.6-51.2 57.6-76.8V505.6c0-32-25.6-51.2-57.6-51.2z m-102.4 0H166.4V121.6c0-32 12.8-38.4 38.4-38.4h620.8c32 0 38.4 6.4 38.4 38.4v332.8h-6.4z m-70.4-281.6H236.8c-19.2 0-32 12.8-32 32s19.2 32 32 32h544c19.2 0 32-12.8 32-32 6.4-19.2-6.4-32-25.6-32z m0 160H236.8c-19.2 0-32 12.8-32 32s19.2 32 32 32h544c19.2 0 32-12.8 32-32 6.4-19.2-6.4-32-25.6-32z" fill="#040000" p-id="10968"></path></svg>